<svg width="36" height="36" viewBox="0 0 36 36" fill="none" xmlns="http://www.w3.org/2000/svg">
<g clip-path="url(#clip0_125_330)">
<path d="M18.0001 36C27.9412 36 36.0001 27.9412 36.0001 18C36.0001 8.05892 27.9412 4.57764e-05 18.0001 4.57764e-05C8.05894 4.57764e-05 6.10352e-05 8.05892 6.10352e-05 18C6.10352e-05 27.9412 8.05894 36 18.0001 36Z" fill="#3C5A9A"/>
<path d="M23.8528 5.52505H19.8654C17.4991 5.52505 14.8671 6.52028 14.8671 9.9503C14.8787 11.1455 14.8671 12.2901 14.8671 13.5782H12.1296V17.9344H14.9518V30.4749H20.1377V17.8516H23.5606L23.8703 13.566H20.0484C20.0484 13.566 20.0569 11.6596 20.0484 11.106C20.0484 9.7505 21.4588 9.82812 21.5436 9.82812C22.2148 9.82812 23.5198 9.83008 23.8548 9.82812V5.52505H23.8528V5.52505Z" fill="white"/>
</g>
<defs>
<clipPath id="clip0_125_330">
<rect width="36" height="36" fill="white"/>
</clipPath>
</defs>
</svg>
