<svg width="159" height="158" viewBox="0 0 159 158" fill="none" xmlns="http://www.w3.org/2000/svg">
<ellipse cx="79.5" cy="79" rx="79.5" ry="79" fill="white"/>
<path d="M80.3333 101C86.6984 101 92.8029 98.4714 97.3038 93.9706C101.805 89.4697 104.333 83.3652 104.333 77C104.333 70.38 99.8453 65.384 94.6053 59.552C89.3493 53.704 83.3333 47.012 80.3333 37C80.3333 37 56.3333 59.744 56.3333 77C56.3333 83.3652 58.8618 89.4697 63.3627 93.9706C67.8636 98.4714 73.9681 101 80.3333 101ZM74.9173 55.584L69.6666 61C68.5066 62.16 67.4493 60.0973 64.3333 66.3333L66.5453 68.104C69.8253 61.54 73.4133 57.092 74.9173 55.584Z" fill="#3A1700"/>
<path d="M71.1743 64.1804L69.8983 65.4546L71.7969 67.3523L73.0711 66.0781L71.1743 64.1804ZM87.8266 64.1804L85.928 66.0781L87.2031 67.3523L89.1008 65.4555L87.8266 64.1804ZM79.5 64.7459C79.2009 64.7495 78.8982 64.7668 78.5938 64.8039C78.5847 64.8039 78.5756 64.8021 78.5666 64.8039C74.8908 65.2253 71.9654 68.1951 71.457 71.8545C71.051 74.7999 72.2654 77.4706 74.2891 79.1906C75.1168 79.8971 75.6767 80.8665 75.875 81.9366V87.3741H77.9412C78.2566 87.9151 78.8321 88.2803 79.5 88.2803C80.1679 88.2803 80.7434 87.9151 81.0587 87.3741H83.125V83.7491H83.2102V82.6725C83.2102 81.3439 83.9007 80.0045 85.0227 78.9632C86.5234 77.4606 87.6562 75.3264 87.6562 72.875C87.6562 68.3981 83.9714 64.7042 79.5 64.7459ZM79.5 66.5584C83.0027 66.5095 85.8438 69.3769 85.8438 72.875C85.8438 74.7727 84.9647 76.4438 83.7476 77.66L83.7766 77.689C82.5671 78.8043 81.785 80.307 81.5653 81.9375H77.6014C77.402 80.3842 76.7359 78.8807 75.4772 77.8023C73.8758 76.4429 72.9215 74.3948 73.2405 72.082C73.6366 69.2273 75.9529 66.9318 78.7913 66.6173C79.0257 66.5847 79.2617 66.5653 79.4982 66.5593L79.5 66.5584ZM66.8125 72.875V74.6875H69.5312V72.875H66.8125ZM89.4688 72.875V74.6875H92.1875V72.875H89.4688ZM71.7969 80.2102L69.8992 82.107L71.1743 83.382L73.0702 81.4844L71.7969 80.2102ZM87.2031 80.2102L85.9289 81.4844L87.8257 83.382L89.1008 82.107L87.2031 80.2102ZM77.6875 83.75H81.3125V85.5625H77.6875V83.75Z" fill="white"/>
<path d="M79.9603 85.0951C76.8056 85.0951 78.3509 81.1705 78.3509 79.0596C78.3509 78.7355 78.8235 77.8951 79.096 78.5082C79.3048 78.978 79.3959 80.301 79.4238 80.8032C79.4431 81.1498 79.4573 82.874 79.9603 81.7421C80.2762 81.0313 80.6078 80.639 80.7799 79.8644C81.118 78.343 80.9539 77.8429 80.2882 76.5113C79.896 75.727 80.554 74.9658 81.2866 74.7827C81.5892 74.707 81.838 76.294 81.838 76.6604C81.838 76.9618 81.7899 78.3362 81.8976 78.1208C82.0782 77.7597 82.6219 76.8657 82.6427 76.5113C82.6731 75.9956 82.7629 75.2254 82.5086 74.7677C82.2887 74.3718 81.3438 73.6256 81.5996 74.6485C81.7558 75.2734 83.984 77.9698 83.984 76.5113C83.984 75.8784 83.7766 74.0571 83.0302 73.8438C82.857 73.7943 82.6526 73.9459 82.6576 73.9332C82.8087 73.5557 83.0443 73.1042 83.3879 72.8751C83.7756 72.6166 83.0607 73.5225 82.3745 73.5607C80.5436 73.6624 79.6222 69.8752 77.6803 71.8171C76.6996 72.7978 75.7692 74.2859 75.4598 75.647C75.3846 75.9779 75.0257 78.3062 75.3406 76.9286C75.5149 76.166 75.1115 75.1865 75.8026 74.6336C76.2861 74.2468 75.1812 73.7151 75.4151 74.7677C75.4885 75.0982 76.285 79.0557 76.95 78.8063C77.3868 78.6425 76.0057 76.3524 75.9516 76.109C75.7874 75.3702 75.9416 74.7292 75.6684 73.9779C75.5388 73.6214 75.0334 73.5125 74.8637 73.1732C74.5746 72.595 75.0454 71.8859 75.281 71.4147C75.8103 70.356 77.4478 69.0479 78.6787 69.0005C79.5109 68.9685 81.773 68.5717 82.0914 69.686C82.4104 70.8027 83.187 72.0925 82.1063 73.1732C81.5593 73.7202 80.5251 73.6885 79.8262 73.8438C78.8644 74.0575 77.8378 75.6895 77.412 76.5411C76.5299 78.3054 76.78 77.8816 76.7414 76.1835C76.7184 75.1703 76.45 73.6865 76.1453 72.6963C75.9525 72.0697 75.8245 70.7733 75.0127 71.8171C74.6175 72.3252 74.1098 72.8533 73.7907 73.4116C73.2755 74.3134 73.6739 72.2931 73.7311 72.0704C73.8959 71.4296 73.8596 70.2867 74.3868 69.8649C74.7055 69.61 75.6189 69.654 76.0708 69.4029C76.5904 69.1142 77.3813 69.1824 77.9634 68.9707C78.4846 68.7812 79.1543 67.9592 79.6921 67.9276C80.4998 67.8801 81.0294 68.1452 81.7784 68.4044C83.0696 68.8514 83.9224 69.3272 84.2373 70.7441C84.4472 71.6887 85.0671 72.8549 84.5801 73.8289C83.8766 75.2359 82.7249 72.5717 82.4043 71.9661C81.6388 70.5201 80.7525 69.1649 79.9603 67.7785C79.3678 66.7417 78.1149 66.9415 77.3375 67.7189C76.6282 68.4282 75.9132 69.7423 76.8755 70.4908C77.3684 70.8741 77.5231 71.6678 77.874 70.8782C78.3033 69.9122 77.8357 69.2773 79.1556 69.8053" stroke="#FFFCF5" stroke-width="3" stroke-linecap="round"/>
<path d="M80.1812 39.8323C82.3079 30.5082 97.0594 28.6342 106.168 33.8896C115.277 39.145 122.454 47.1915 126.637 56.8399C130.821 66.4882 131.789 77.2265 129.399 87.4677C127.009 97.7088 121.388 106.909 113.366 113.71C105.344 120.51 95.3476 124.549 84.8534 125.229C74.3591 125.91 63.9243 123.197 55.0911 117.49C46.2579 111.783 39.495 103.386 35.802 93.5396C32.109 83.6931 34.7795 72.4403 37.6813 62.3323" stroke="#3A1700" stroke-width="2"/>
</svg>
    